<?xml version="1.0" encoding="UTF-8" standalone="no"?>
<!-- Created with Inkscape (http://www.inkscape.org/) -->

<svg
   width="14.999601mm"
   height="14.999604mm"
   viewBox="0 0 14.999601 14.999604"
   version="1.1"
   id="svg1"
   inkscape:version="1.4.2 (ebf0e940d0, 2025-05-08)"
   sodipodi:docname="knob-spd-circle.svg"
   xmlns:inkscape="http://www.inkscape.org/namespaces/inkscape"
   xmlns:sodipodi="http://sodipodi.sourceforge.net/DTD/sodipodi-0.dtd"
   xmlns="http://www.w3.org/2000/svg"
   xmlns:svg="http://www.w3.org/2000/svg">
  <sodipodi:namedview
     id="namedview1"
     pagecolor="#ffffff"
     bordercolor="#000000"
     borderopacity="0.25"
     inkscape:showpageshadow="2"
     inkscape:pageopacity="0.0"
     inkscape:pagecheckerboard="0"
     inkscape:deskcolor="#d1d1d1"
     inkscape:document-units="mm"
     inkscape:zoom="11.588215"
     inkscape:cx="17.560944"
     inkscape:cy="30.073657"
     inkscape:window-width="2560"
     inkscape:window-height="1025"
     inkscape:window-x="0"
     inkscape:window-y="0"
     inkscape:window-maximized="1"
     inkscape:current-layer="layer1" />
  <defs
     id="defs1" />
  <g
     inkscape:label="Layer 1"
     inkscape:groupmode="layer"
     id="layer1"
     transform="translate(-67.711487,-98.695936)">
    <path
       id="path1"
       style="fill:#000000;stroke-width:0.1;stroke-linecap:round"
       d="m 75.211287,98.695936 a 7.5,7.5 0 0 0 -7.4998,7.499804 7.5,7.5 0 0 0 7.4998,7.4998 7.5,7.5 0 0 0 7.499801,-7.4998 7.5,7.5 0 0 0 -7.499801,-7.499804 z m 0,0.999939 a 6.5,6.5 0 0 1 6.499862,6.499865 6.5,6.5 0 0 1 -6.499862,6.49986 6.5,6.5 0 0 1 -6.499861,-6.49986 6.5,6.5 0 0 1 6.499861,-6.499865 z" />
  </g>
</svg>
